<svg id="visual" viewBox="0 0 900 600" width="900" height="600" xmlns="http://www.w3.org/2000/svg" xmlns:xlink="http://www.w3.org/1999/xlink" version="1.1"><path d="M0 91L150 73L300 85L450 139L600 97L750 127L900 241L900 0L750 0L600 0L450 0L300 0L150 0L0 0Z" fill="#00cc8e"></path><path d="M0 151L150 91L300 133L450 145L600 151L750 139L900 253L900 239L750 125L600 95L450 137L300 83L150 71L0 89Z" fill="#00c38c"></path><path d="M0 223L150 151L300 169L450 241L600 229L750 247L900 337L900 251L750 137L600 149L450 143L300 131L150 89L0 149Z" fill="#00b98a"></path><path d="M0 271L150 193L300 211L450 295L600 265L750 295L900 373L900 335L750 245L600 227L450 239L300 167L150 149L0 221Z" fill="#00b087"></path><path d="M0 283L150 259L300 259L450 343L600 331L750 313L900 391L900 371L750 293L600 263L450 293L300 209L150 191L0 269Z" fill="#00a784"></path><path d="M0 331L150 283L300 331L450 355L600 373L750 391L900 463L900 389L750 311L600 329L450 341L300 257L150 257L0 281Z" fill="#009e80"></path><path d="M0 439L150 505L300 541L450 433L600 487L750 499L900 499L900 461L750 389L600 371L450 353L300 329L150 281L0 329Z" fill="#00957c"></path><path d="M0 553L150 565L300 565L450 535L600 553L750 571L900 589L900 497L750 497L600 485L450 431L300 539L150 503L0 437Z" fill="#008c78"></path><path d="M0 601L150 601L300 601L450 601L600 601L750 601L900 601L900 587L750 569L600 551L450 533L300 563L150 563L0 551Z" fill="#038373"></path></svg>